<?xml version="1.0" encoding="iso-8859-1"?>
<!-- Generator: Adobe Illustrator 19.0.0, SVG Export Plug-In . SVG Version: 6.00 Build 0)  -->
<svg version="1.1" id="Layer_1" xmlns="http://www.w3.org/2000/svg" xmlns:xlink="http://www.w3.org/1999/xlink" x="0px" y="0px"
	 viewBox="0 0 504 504" style="enable-background:new 0 0 504 504;" xml:space="preserve">
<path style="fill:#E36D60;" d="M248,298.6L92,206.2v183.2l156,92V298.6z"/>
<g>
	<circle style="fill:#DF5C4E;" cx="252" cy="31" r="10"/>
	<path style="fill:#DF5C4E;" d="M16,428.6c-5.6,0-10,4.4-10,10s4.4,10,10,10s10-4.4,10-10C25.6,433,21.2,428.6,16,428.6z"/>
	<path style="fill:#DF5C4E;" d="M488,448.2c5.6,0,10-4.4,10-10s-4.4-10-10-10s-10,4.4-10,10C478.4,443.8,482.8,448.2,488,448.2z"/>
</g>
<path d="M250,483.8c-2.4,0-4-1.6-4-4v-368c0-2.4,1.6-4,4-4s4,1.6,4,4v368C254,482.2,252.4,483.8,250,483.8z"/>
<path d="M250,79.8c-2.4,0-4-1.6-4-4v-32c0-2.4,1.6-4,4-4s4,1.6,4,4v32C254,78.2,252.4,79.8,250,79.8z"/>
<path d="M90,391.8c-2.4,0-4-1.6-4-4v-184c0-2.4,1.6-4,4-4s4,1.6,4,4v184C94,390.2,92.4,391.8,90,391.8z"/>
<path d="M411.2,395L411.2,395c-2.4,0-4-2-4-4l0.4-188c0-2.4,1.6-4,4-4s4,1.6,4,4l-0.4,188C415.2,393.4,413.6,395,411.2,395z"/>
<path d="M252,47c-8.8,0-16-7.2-16-16s7.2-16,16-16s16,7.2,16,16S260.8,47,252,47z M252,23c-4.4,0-8,3.6-8,8s3.6,8,8,8s8-3.6,8-8
	S256.4,23,252,23z"/>
<path d="M16,454.6c-8.8,0-16-7.2-16-16s7.2-16,16-16s16,7.2,16,16S24.8,454.6,16,454.6z M16,430.6c-4.4,0-8,3.6-8,8s3.6,8,8,8
	s8-3.6,8-8S20.4,430.6,16,430.6z"/>
<path d="M94,393.8c-1.2,0-2.8-0.8-3.6-2c-1.2-2-0.4-4.4,1.6-5.6l276-162.4c2-1.2,4.4-0.4,5.6,1.6c1.2,2,0.4,4.4-1.6,5.6L96,393.4
	C95.2,393.8,94.8,393.8,94,393.8z"/>
<path d="M26,436.6c-1.2,0-2.4-0.8-3.2-2c-1.2-2-0.8-4.4,1.2-5.6l39.6-25.6c2-1.2,4.4-0.8,5.6,1.2s0.8,4.4-1.2,5.6l-39.6,25.6
	C27.6,436.2,26.8,436.6,26,436.6z"/>
<path d="M411.2,395c-0.8,0-1.2,0-2-0.4L90,206.6c-2-1.2-2.4-3.6-1.6-5.6c1.2-2,3.6-2.4,5.6-1.6l319.2,188c2,1.2,2.4,3.6,1.6,5.6
	C414,394.2,412.4,395,411.2,395z"/>
<path d="M251.6,489c-1.2,0-2.8-0.8-3.6-2c-1.2-2-0.4-4.4,1.6-5.6l159.6-94c2-1.2,4.4-0.4,5.6,1.6c1.2,2,0.4,4.4-1.6,5.6l-159.6,94
	C252.8,489,252.4,489,251.6,489z"/>
<path d="M251.6,488.6c-0.8,0-1.6,0-2-0.4L88,391.4c-2-1.2-2.4-3.6-1.2-5.6s3.6-2.4,5.6-1.2L254,481.4c2,1.2,2.4,3.6,1.2,5.6
	C254.4,487.8,252.8,488.6,251.6,488.6z"/>
<path d="M249.2,449.8c-0.8,0-1.2,0-2-0.4l-156-92c-2-1.2-2.4-3.6-1.6-5.6s3.6-2.4,5.6-1.6l156,92c2,1.2,2.4,3.6,1.6,5.6
	C252,449,250.4,449.8,249.2,449.8z"/>
<path d="M249.2,411.8c-0.8,0-1.2,0-2-0.4l-156-92c-2-1.2-2.4-3.6-1.6-5.6c1.2-2,3.6-2.4,5.6-1.6l156,92c2,1.2,2.4,3.6,1.6,5.6
	C252,411,250.4,411.8,249.2,411.8z"/>
<path d="M249.2,337.4c-0.8,0-1.2,0-2-0.4l-156-92c-2-1.2-2.4-3.6-1.6-5.6c1.2-2,3.6-2.4,5.6-1.6l156,92c2,1.2,2.4,3.6,1.6,5.6
	C252,336.6,250.4,337.4,249.2,337.4z"/>
<path d="M411.6,207c-0.8,0-1.2,0-2-0.4l-159.2-94c-2-1.2-2.4-3.6-1.6-5.6c1.2-2,3.6-2.4,5.6-1.6l159.2,94c2,1.2,2.4,3.6,1.6,5.6
	C414.4,206.2,412.8,207,411.6,207z"/>
<path d="M92.4,207c-1.2,0-2.8-0.8-3.6-2c-1.2-2-0.4-4.4,1.6-5.6l158.8-94c2-1.2,4.4-0.4,5.6,1.6c1.2,2,0.4,4.4-1.6,5.6l-158.8,94
	C93.6,207,93.2,207,92.4,207z"/>
<path d="M249.2,374.6c-0.8,0-1.2,0-2-0.4l-156-91.6c-2-1.2-2.4-3.6-1.6-5.6c1.2-2,3.6-2.4,5.6-1.6l156,91.6c2,1.2,2.4,3.6,1.6,5.6
	C252,373.8,250.4,374.6,249.2,374.6z"/>
<path d="M488,454.6c-8.8,0-16-7.2-16-16s7.2-16,16-16s16,7.2,16,16S496.8,454.6,488,454.6z M488,430.6c-4.4,0-8,3.6-8,8s3.6,8,8,8
	s8-3.6,8-8S492.4,430.6,488,430.6z"/>
<path d="M478,436.6c-0.8,0-1.6-0.4-2-0.8l-39.6-25.6c-2-1.2-2.4-3.6-1.2-5.6s3.6-2.4,5.6-1.2l39.6,25.6c2,1.2,2.4,3.6,1.2,5.6
	C480.4,435.8,479.2,436.6,478,436.6z"/>
<g>
</g>
<g>
</g>
<g>
</g>
<g>
</g>
<g>
</g>
<g>
</g>
<g>
</g>
<g>
</g>
<g>
</g>
<g>
</g>
<g>
</g>
<g>
</g>
<g>
</g>
<g>
</g>
<g>
</g>
</svg>
