<?xml version="1.0" encoding="iso-8859-1"?>
<!-- Generator: Adobe Illustrator 19.0.0, SVG Export Plug-In . SVG Version: 6.00 Build 0)  -->
<svg version="1.1" id="Capa_1" xmlns="http://www.w3.org/2000/svg" xmlns:xlink="http://www.w3.org/1999/xlink" x="0px" y="0px"
	 viewBox="0 0 488.8 488.8" style="enable-background:new 0 0 488.8 488.8;" xml:space="preserve">
<g>
	<g>
		<g>
			<path d="M280.5,111.7c0,5.4,4.3,9.7,9.7,9.7s9.7-4.3,9.7-9.7C299.9,50,249.9,0,188.2,0S76.4,50,76.4,111.7c0,5.4,4.3,9.7,9.7,9.7
				c5.4,0,9.7-4.3,9.7-9.7c0-50.8,41.5-92.3,92.3-92.3S280.5,60.9,280.5,111.7z"/>
			<path d="M168,251.4v115.2c0,67.5,54.7,122.2,122.2,122.2l0,0c67.5,0,122.2-54.7,122.2-122.2V251.4H290.2H168z"/>
			<rect x="299.9" y="116" width="112.5" height="116"/>
			<rect x="168" y="116" width="112.5" height="116"/>
		</g>
	</g>
</g>
<g>
</g>
<g>
</g>
<g>
</g>
<g>
</g>
<g>
</g>
<g>
</g>
<g>
</g>
<g>
</g>
<g>
</g>
<g>
</g>
<g>
</g>
<g>
</g>
<g>
</g>
<g>
</g>
<g>
</g>
</svg>
