<?xml version="1.0" encoding="iso-8859-1"?>
<!-- Generator: Adobe Illustrator 19.0.0, SVG Export Plug-In . SVG Version: 6.00 Build 0)  -->
<svg version="1.1" id="Layer_1" xmlns="http://www.w3.org/2000/svg" xmlns:xlink="http://www.w3.org/1999/xlink" x="0px" y="0px"
	 viewBox="0 0 512 512" style="enable-background:new 0 0 512 512;" xml:space="preserve">
<g>
	<g>
		<path d="M420.427,275.237h-14.971V111.925c0-5.888-1.979-11.533-6.143-15.694L309.335,6.286C305.173,2.122,299.706,0,293.82,0
			H51.051C38.792,0,28.116,9.506,28.116,21.764v446.679c0,12.26,10.677,22.84,22.935,22.84h98.85
			C161.643,504.601,178.83,512,197.961,512h222.467c35.304,0,63.457-28.29,63.457-63.595V338.687
			C483.884,303.384,455.732,275.237,420.427,275.237z M301.873,61.197l42.672,42.386h-42.672V61.197z M134.659,338.688V446.89
			h-62.15V44.393H257.48v81.685c0,12.258,9.926,21.899,22.185,21.899h81.399v127.26H197.961
			C162.658,275.237,134.659,303.384,134.659,338.688z M440.973,449.453h-0.002c0,10.842-8.79,19.634-19.634,19.634H198.686
			c-10.844,0-19.634-8.79-19.634-19.634V339.262c0-10.842,8.79-19.634,19.634-19.634h222.653c10.842,0,19.634,8.79,19.634,19.634
			V449.453z"/>
	</g>
</g>
<g>
	<g>
		<path d="M231.61,337.387h-25.045c-8.171,0-14.195,6.857-14.195,15.029v78.189c0,8.173,6.626,14.798,14.798,14.798
			c8.171,0,14.798-6.626,14.798-14.798v-22.189h9.645c19.5,0,35.363-16.016,35.363-35.514S251.109,337.387,231.61,337.387z
			 M231.61,378.821h-9.645v-11.838h9.645c3.18,0,5.768,2.738,5.768,5.919C237.379,376.083,234.79,378.821,231.61,378.821z"/>
	</g>
</g>
<g>
	<g>
		<path d="M388.148,337.387h-21.935c-8.171,0-15.508,6.857-15.508,15.029v82.262c0,8.171,7.337,15.172,15.508,15.172h21.933
			c21.217,0,38.027-17.633,38.027-38.848v-34.909C426.173,354.877,409.363,337.387,388.148,337.387z M396.578,411.001
			c0,4.897-3.535,9.253-8.43,9.253h-7.847v-53.272h7.847c4.897,0,8.43,4.214,8.43,9.109V411.001z"/>
	</g>
</g>
<g>
	<g>
		<path d="M310.259,378.821h-4.479c-3.18,0-5.768-2.739-5.768-5.919c0-3.18,2.588-5.919,5.768-5.919h25.045
			c8.171,0,14.798-6.626,14.798-14.798c0-8.171-6.626-14.798-14.798-14.798h-25.045c-19.5,0-35.364,16.016-35.364,35.514
			c0,19.5,15.865,35.514,35.364,35.514h4.479c3.18,0,5.767,2.739,5.767,5.919s-2.587,5.919-5.767,5.919h-25.047
			c-8.171,0-14.798,6.626-14.798,14.798c0,8.171,6.626,14.798,14.798,14.798h25.047c19.499,0,35.362-16.016,35.362-35.514
			S329.756,378.821,310.259,378.821z"/>
	</g>
</g>
<g>
</g>
<g>
</g>
<g>
</g>
<g>
</g>
<g>
</g>
<g>
</g>
<g>
</g>
<g>
</g>
<g>
</g>
<g>
</g>
<g>
</g>
<g>
</g>
<g>
</g>
<g>
</g>
<g>
</g>
</svg>
